# xmcd CD database file
#
# Track frame offsets:
#	150
#	12373
#	23224
#	36021
#	48144
#	63601
#	73844
#	84632
#	96194
#	111076
#	124271
#	136619
#	148433
#
# Disc length: 2240 seconds
#
# Revision: 4
# Processed by: cddbd v1.5.2PL0 Copyright (c) Steve Scherf et al.
# Submitted via: CDex 1.51
#
DISCID=b808be0d
DTITLE=ZIM - Die Zillertaler Musikanten - Nimm ZIM
DYEAR=2006
DGENRE=Volkstümlich
TTITLE0=DU GIBST MIR BERGE MEIN TIROL
TTITLE1=BOARISCH KLINGT'S AN ZILLACHTOL
TTITLE2=LEB' WOHL, LEBE WOHL
TTITLE3=I BRAUCH KOAN OSCAR
TTITLE4=DAS KOMMT VOM SOMMERWEIN
TTITLE5=I BIN A MUSIKANT AUS DEM SCHÖNEN ZILLERTAL
TTITLE6=ALLES OK
TTITLE7=NIMM ZIM
TTITLE8=IRGENDWANN BIST DU DRAN
TTITLE9=BOARISCHER DER FF-LAIMACH
TTITLE10=FÜR MI DA GIBT'S NUR OANS
TTITLE11=DA SPIELT DIE MUSIG
TTITLE12=ANGELS
EXTD=YEAR: 2006
EXTT0=
EXTT1=
EXTT2=
EXTT3=
EXTT4=
EXTT5=
EXTT6=
EXTT7=
EXTT8=
EXTT9=
EXTT10=
EXTT11=
EXTT12=
PLAYORDER=
